<svg xmlns="http://www.w3.org/2000/svg" height="40" viewBox="0 96 960 960" width="40"><path d="M228.449 787.029q58.624-41.203 120.203-63.616Q410.232 701 480.205 701q69.972 0 132.31 22.985 62.337 22.985 119.703 63.233 39.681-50.233 57.572-101.485Q807.681 634.482 807.681 576q0-138.079-94.782-232.88-94.782-94.801-232.833-94.801-138.052 0-232.899 94.801-94.848 94.801-94.848 232.88 0 58.261 17.952 109.422 17.952 51.162 58.178 101.607Zm251.427-173.362q-60.153 0-100.898-40.805-40.746-40.806-40.746-100.711t40.87-100.869q40.869-40.963 101.022-40.963 60.153 0 100.898 41.087 40.746 41.088 40.746 100.993 0 59.905-40.87 100.586-40.869 40.682-101.022 40.682Zm.2 378.16q-85.612 0-161.396-32.646-75.784-32.646-132.495-89.348-56.71-56.702-89.36-132.365-32.652-75.664-32.652-161.692 0-85.602 32.725-161.283 32.725-75.682 89.319-132.276 56.594-56.594 132.276-89.508 75.682-32.913 161.731-32.913 85.602 0 161.283 32.913 75.682 32.914 132.276 89.508 56.594 56.594 89.508 132.344 32.913 75.75 32.913 161.363 0 85.612-32.913 161.439-32.914 75.826-89.508 132.42-56.594 56.594-132.344 89.319t-161.363 32.725ZM480 903.681q52.261 0 99.913-14.608 47.652-14.609 94.652-49.058-47.754-32.725-94.891-49.051-47.138-16.326-99.674-16.326-52.536 0-99.391 16.326Q333.754 807.29 286 840.015q47 34.449 94.37 49.058 47.369 14.608 99.63 14.608Zm0-364.029q29.399 0 48.482-18.869 19.083-18.87 19.083-48.508 0-29.637-19.083-48.79-19.083-19.152-48.482-19.152t-48.482 19.152q-19.083 19.153-19.083 48.79 0 29.638 19.083 48.508 19.083 18.869 48.482 18.869Zm0-67.565Zm.565 367.261Z"/></svg>