<svg xmlns="http://www.w3.org/2000/svg" height="40" viewBox="0 96 960 960" width="40"><path d="M479.9 942.971q-153.114 0-259.993-106.878Q113.029 729.214 113.029 576.1q0-153.115 106.907-260.376Q326.844 208.463 480 208.463q8.681 0 18.05.384 9.37.385 22.283 1.718-32.014 33.261-50.405 77.362-18.391 44.102-18.391 93 0 93.376 65.582 158.739 65.583 65.363 159.273 65.363 48.478 0 92.695-17.109 44.218-17.108 76.913-47.499.768 11.57 1.153 19.59.384 8.021.384 15.392 0 153.046-107.261 260.307Q633.015 942.971 479.9 942.971Zm.1-88.145q89.565 0 159.362-51.747 69.797-51.746 94.362-125.035-18.435 7.116-39.691 10.463-21.256 3.348-41.57 2.218-115.575-8.102-196.953-88.256-81.379-80.154-90.235-199.498-.565-17.328 2.167-37.555 2.732-20.227 11.369-45.14-77.391 29.797-127.514 100.594-50.123 70.797-50.123 155.13 0 116.248 81.289 197.537T480 854.826Zm-12.218-267.275Z"/></svg>