<svg xmlns="http://www.w3.org/2000/svg" height="40" viewBox="0 96 960 960" width="40"><path d="M479.843 687.478q46.635 0 79.323-32.343 32.688-32.343 32.688-78.978 0-46.635-32.531-79.323-32.531-32.688-79.166-32.688t-79.135 32.531q-32.5 32.531-32.5 79.166t32.343 79.135q32.343 32.5 78.978 32.5ZM480 776q-83 0-141.5-58.5T280 576q0-83 58.5-141.5T480 376q83 0 141.5 58.5T680 576q0 83-58.5 141.5T480 776ZM73.333 620.073q-18.5 0-31.286-12.82-12.787-12.82-12.787-31.37t12.787-31.253q12.786-12.703 31.286-12.703h93.334q18.5 0 31.286 12.82 12.787 12.82 12.787 31.37t-12.787 31.253q-12.786 12.703-31.286 12.703H73.333Zm720 0q-18.5 0-31.286-12.82-12.787-12.82-12.787-31.37t12.787-31.253q12.786-12.703 31.286-12.703h93.334q18.5 0 31.286 12.82 12.787 12.82 12.787 31.37t-12.787 31.253q-12.786 12.703-31.286 12.703h-93.334ZM479.883 306.74q-18.55 0-31.253-12.787-12.703-12.786-12.703-31.286v-93.334q0-18.5 12.82-31.286 12.82-12.787 31.37-12.787t31.253 12.787q12.703 12.786 12.703 31.286v93.334q0 18.5-12.82 31.286-12.82 12.787-31.37 12.787Zm0 720q-18.55 0-31.253-12.79-12.703-12.78-12.703-31.283v-93.334q0-18.5 12.82-31.286 12.82-12.787 31.37-12.787t31.253 12.787q12.703 12.786 12.703 31.286v93.334q0 18.503-12.82 31.283-12.82 12.79-31.37 12.79ZM227.797 386.102l-52.334-51.334q-13.203-12.869-12.789-31.272.414-18.402 12.72-32.102 12.946-13.134 31.16-13.134t31.649 13.203l51.899 52.334q12.203 13.015 12.109 30.776-.095 17.761-12.109 30.63-12.58 12.87-30.841 13.268-18.261.399-31.464-12.369Zm494 494.435-51.899-52.334q-12.203-13.015-12.203-30.91t12.537-30.83q12.536-13.203 30.652-13.036 18.116.167 31.319 13.036l52.334 50.769q13.203 12.869 12.789 31.272-.414 18.402-12.72 32.102-12.946 13.134-31.16 13.134t-31.649-13.203Zm-51.334-494.435q-13.203-12.87-13.036-30.986.167-18.116 13.036-31.319l50.769-52.334q12.869-13.203 31.272-12.789 18.402.414 32.102 12.72 13.134 12.946 13.134 31.16t-13.203 31.649l-52.334 51.899q-12.348 12.203-30.351 12.109-18.004-.095-31.389-12.109ZM175.394 880.606q-13.134-12.946-13.134-31.16t13.203-31.649l52.334-51.899q12.881-12.869 30.593-12.869t30.886 12.869q13.464 12.87 13.297 30.986-.167 18.116-13.036 31.319l-50.769 52.334q-12.869 13.203-31.272 12.789-18.402-.414-32.102-12.72ZM480 576Z"/></svg>